<svg width="270" height="276" xmlns="http://www.w3.org/2000/svg" preserveAspectRatio="xMidYMid meet">

 <g>
  <title>background</title>
  <rect fill="none" id="canvas_background" height="278" width="272" y="-1" x="-1"/>
 </g>
 <g>
  <title>Layer 1</title>
  <polyline stroke="#fbf300" stroke-linecap="round" id="svg_18" points="50.126121520996094,7014.995498657227 50.126121520996094,7014.995498657227 50.126121520996094,7014.995498657227 " stroke-width="1.5" fill="none"/>
  <path id="svg_25" d="m46.63986,7002.647806" opacity="0.5" stroke-width="1.5" stroke="#fbf300" fill="#e30917"/>
  <polyline stroke="#fbf300" stroke-linecap="round" id="svg_26" points="2.75,6875.2470703125 2.75,6875.2470703125 2.75,6875.2470703125 " stroke-opacity="null" stroke-width="1.5" fill="none"/>
  <path id="svg_29" d="m24.040816,6927.981762" opacity="0.5" stroke-opacity="null" stroke-width="1.5" stroke="#fbf300" fill="#e30917"/>
  <rect id="svg_33" height="275.002041" width="272.012366" y="-0.810134" x="0.767752" stroke-width="1.5" fill="#fbf300"/>
  <g id="svg_1" fill="#000000" transform="translate(0,300) scale(0.10000000149011612,-0.10000000149011612) ">
   <path stroke="#fbf300" fill="#e30917" id="svg_2" d="m1215.953623,3010.463541c-375,-41 -720,-238 -952,-544c-78,-103 -173,-292 -208,-415c-102,-356 -58,-737 122,-1050c140,-243 355,-443 598,-556c397,-183 869,-165 1240,48c345,198 590,544 661,935c21,113 23,350 4,458c-30,175 -103,365 -196,509l-39,60l-56,-6c-80,-8 -146,16 -198,72c-48,52 -65,109 -58,185c6,52 5,56 -21,72c-15,9 -54,33 -87,54c-109,68 -255,124 -405,155c-93,20 -319,32 -405,23zm-703,-1014c109,-31 185,-130 195,-254l6,-66l-191,0c-105,0 -193,-3 -196,-8c-2,-4 2,-22 10,-40c25,-61 128,-80 179,-32c18,16 35,20 98,20c87,0 94,-8 57,-67c-40,-66 -137,-113 -234,-113c-149,0 -276,133 -276,290c0,101 41,187 112,235c62,42 161,57 240,35zm653,-28l45,-32l0,24c0,22 5,24 53,28c28,1 62,2 75,0l22,-3l0,-265l0,-264l-75,0c-74,0 -75,0 -75,26l0,26l-30,-26c-82,-68 -216,-57 -299,25c-77,77 -105,184 -78,296c22,89 59,140 127,176c48,25 63,28 122,25c56,-3 75,-9 113,-36zm698,9c49,-24 74,-54 84,-101l6,-30l-77,0c-62,0 -82,4 -105,21c-35,25 -108,24 -125,-3c-21,-33 5,-52 111,-79c155,-40 213,-87 213,-174c0,-63 -29,-106 -95,-140c-53,-27 -67,-30 -159,-30c-91,0 -107,3 -159,29c-61,29 -97,72 -97,114c0,21 4,22 80,22c56,0 81,-4 87,-14c22,-36 110,-49 151,-20c50,35 18,64 -110,99c-53,15 -110,36 -127,46c-90,55 -95,187 -10,247c67,47 247,54 332,13zm672,7c2,-2 -43,-127 -101,-278c-58,-151 -122,-320 -143,-375l-39,-100l-81,-3c-45,-2 -81,1 -81,6c0,5 23,62 51,126l52,117l-91,237c-50,130 -94,245 -98,255c-5,15 2,17 77,17l84,0l49,-148c27,-81 52,-153 55,-160c4,-7 29,57 55,145c27,87 52,160 56,163c9,6 150,4 155,-2zm-591,-661c23,-15 27,-24 24,-55c-4,-54 -33,-59 -226,-38c-262,28 -405,35 -697,36c-254,0 -506,-9 -687,-25c-57,-5 -68,-4 -68,9c0,9 12,17 33,20c54,9 735,59 957,70c36,1 193,2 350,2c258,-1 289,-3 314,-19zm86,-430c0,-102 -11,-130 -56,-141c-39,-10 -84,12 -99,47l-13,31l-16,-32c-30,-57 -76,-67 -125,-26c-28,23 -31,31 -31,85c0,46 3,59 15,59c11,0 15,-11 15,-43c0,-52 22,-87 55,-87c31,0 45,26 45,84c0,39 3,46 20,46c16,0 20,-7 21,-37c0,-32 2,-34 9,-17c13,33 50,54 92,54c37,0 38,1 38,35c0,24 5,35 15,35c12,0 15,-17 15,-93zm-1242,7c18,-12 20,-19 12,-30c-10,-11 -16,-11 -36,3c-22,14 -26,14 -49,-1c-46,-30 -22,-94 31,-82c50,11 57,11 61,-1c2,-6 -10,-19 -27,-28c-44,-23 -86,-12 -111,28c-26,44 -24,64 10,98c33,33 74,38 109,13zm157,4c14,-6 25,-16 25,-22c0,-6 -19,-30 -42,-53c-35,-36 -39,-43 -22,-43c11,0 25,5 32,12c9,9 15,9 25,-1c10,-10 7,-16 -12,-32c-13,-10 -34,-19 -48,-19c-33,0 -83,51 -83,85c0,32 49,85 79,85c11,0 32,-5 46,-12zm178,-8c14,-11 27,-30 30,-43c3,-21 4,-21 15,4c22,54 85,75 130,43c18,-12 20,-19 12,-30c-10,-11 -16,-11 -36,3c-22,14 -26,14 -49,-1c-46,-30 -19,-94 34,-82c46,11 54,11 58,-1c3,-7 -12,-20 -31,-30c-34,-16 -38,-16 -71,0c-22,11 -37,26 -42,44c-7,27 -8,26 -13,-12c-3,-27 -10,-41 -22,-43c-15,-3 -18,5 -18,52c0,45 -4,58 -22,70c-29,20 -34,20 -58,-4c-15,-15 -20,-33 -20,-70c0,-38 -4,-50 -15,-50c-12,0 -15,13 -15,60c0,51 4,65 25,85c30,31 73,32 108,5zm352,-5c54,-53 12,-145 -65,-145c-30,0 -80,53 -80,85c0,16 12,38 29,56c38,37 82,39 116,4zm185,11c0,-11 -15,-16 -52,-18c-39,-2 -53,-7 -53,-18c0,-11 15,-16 55,-20c49,-5 56,-8 65,-34c14,-41 -19,-66 -91,-66c-47,0 -54,2 -54,20c0,18 7,20 55,20c42,0 55,3 55,15c0,11 -12,15 -47,15c-52,0 -83,20 -83,55c0,35 20,45 87,45c48,0 63,-3 63,-14z"/>
   <path stroke="#fbf300" fill="#e30917" id="svg_3" d="m362.953623,1851.463541c-16,-14 -32,-34 -35,-45c-5,-19 0,-20 104,-20c116,0 125,5 91,46c-40,51 -113,59 -160,19z"/>
   <path stroke="#fbf300" fill="#e30917" id="svg_4" d="m994.953623,1822.463541c-31,-31 -34,-40 -34,-90c0,-98 43,-146 131,-146c112,0 159,168 68,245c-24,19 -42,25 -81,25c-44,0 -54,-4 -84,-34z"/>
   <path stroke="#fbf300" fill="#e30917" id="svg_5" d="m1932.953623,876.463541c-29,-12 -37,-35 -24,-66c24,-51 96,-19 90,40c-3,34 -25,43 -66,26z"/>
   <path stroke="#fbf300" fill="#e30917" id="svg_6" d="m880.953623,868.463541c-12,-10 -21,-26 -19,-36c3,-15 8,-13 32,12c32,33 21,52 -13,24z"/>
   <path stroke="#fbf300" fill="#e30917" id="svg_7" d="m1382.953623,864.463541c-16,-16 -15,-53 2,-68c36,-29 92,13 75,58c-9,25 -56,31 -77,10z"/>
   <path stroke="#fbf300" fill="#e30917" id="svg_8" d="m2293.953623,2786.463541c-58,-35 -77,-98 -49,-165c19,-44 57,-68 110,-69c56,-1 88,17 115,64c25,45 26,71 5,116c-32,68 -117,93 -181,54z"/>
  </g>
 </g>
</svg>