<?xml version="1.0" standalone="no"?>
<!DOCTYPE svg PUBLIC "-//W3C//DTD SVG 20010904//EN"
 "http://www.w3.org/TR/2001/REC-SVG-20010904/DTD/svg10.dtd">
<svg version="1.0" xmlns="http://www.w3.org/2000/svg"
 width="300.000000pt" height="35.000000pt" viewBox="0 0 300.000000 35.000000"
 preserveAspectRatio="xMidYMid meet">

<g transform="translate(0.000000,35.000000) scale(0.100000,-0.100000)"
fill="#000000" stroke="none">
<path d="M1668 139 c-9 -5 -25 -34 -35 -65 -15 -48 -15 -57 -3 -65 20 -12 127
-12 135 1 4 6 -12 10 -39 10 -25 0 -46 4 -46 8 0 5 7 29 16 55 16 46 17 47 59
47 24 0 47 5 50 10 8 13 -114 13 -137 -1z"/>
<path d="M1848 133 c-8 -10 -23 -40 -32 -67 -20 -61 -15 -66 69 -66 81 0 106
15 128 74 26 71 21 76 -71 76 -63 0 -82 -4 -94 -17z m116 -25 c-22 -73 -33
-88 -63 -88 -36 0 -38 11 -15 70 15 36 20 40 51 40 31 0 34 -2 27 -22z"/>
<path d="M2053 85 c-21 -63 -21 -66 -3 -75 26 -14 120 -12 149 3 26 13 83 143
59 135 -6 -2 -21 -31 -34 -64 l-22 -59 -51 -3 c-59 -4 -60 -1 -31 76 l20 52
-33 0 c-32 0 -34 -2 -54 -65z"/>
<path d="M2278 75 l-26 -75 29 0 c25 0 33 6 45 35 19 45 41 45 50 0 6 -32 9
-35 41 -35 33 0 34 1 27 35 -4 24 -2 35 5 35 13 0 42 61 35 72 -3 5 -44 8 -92
8 l-87 0 -27 -75z m140 38 c-2 -12 -14 -19 -36 -21 -34 -3 -35 -2 -26 22 9 23
67 22 62 -1z"/>
<path d="M2498 75 l-26 -75 28 0 c34 0 32 -3 64 83 l25 67 -32 0 c-31 0 -33
-3 -59 -75z"/>
<path d="M2613 133 c-3 -10 -14 -40 -25 -66 -10 -26 -18 -52 -18 -57 0 -6 34
-10 75 -10 43 0 75 4 75 10 0 6 -18 10 -40 10 -40 0 -45 5 -34 34 4 11 19 16
50 16 24 0 44 5 44 10 0 6 -18 10 -41 10 -33 0 -40 3 -35 16 3 9 6 18 6 20 0
2 20 4 44 4 25 0 48 5 51 10 4 6 -22 10 -70 10 -63 0 -77 -3 -82 -17z"/>
<path d="M2778 75 l-27 -75 30 0 c25 0 33 6 45 35 8 19 21 35 29 35 8 0 17
-14 21 -35 6 -32 9 -35 40 -35 19 0 34 1 34 3 0 1 -4 17 -9 35 -8 26 -7 32 5
32 15 0 46 59 38 72 -3 5 -44 8 -92 8 l-87 0 -27 -75z m142 51 c0 -22 -17 -36
-41 -36 -31 0 -32 1 -23 24 5 14 64 24 64 12z"/>
</g>
</svg>
