<?xml version="1.0" encoding="utf-8"?>
<!-- Generator: Adobe Illustrator 23.0.1, SVG Export Plug-In . SVG Version: 6.00 Build 0)  -->
<svg version="1.1" id="Capa_1" xmlns="http://www.w3.org/2000/svg" xmlns:xlink="http://www.w3.org/1999/xlink" x="0px" y="0px"
	 viewBox="0 0 2700.42 474" style="enable-background:new 0 0 2700.42 474;" xml:space="preserve">
<style type="text/css">
	.st0{fill:#3A1F4F;}
	.st1{fill:#FFFFFF;}
</style>
<path class="st0" d="M708.37,111.24c0.86-0.4,1.73-0.8,2.59-1.2c1.98,3.68,4.14,7.29,5.93,11.06
	c20.41,43.18,40.97,86.29,60.99,129.65c4.77,10.33,10.84,13.86,21.79,9.92c12.08-4.35,24.46-7.85,36.73-11.66
	c9.61-2.99,13.13-8.26,7.85-18.03C805.66,159.67,767.19,88.3,728.77,16.9c-4.62-8.59-10.81-10.61-20.01-7.37
	c-14.38,5.07-28.97,9.63-43.65,13.76c-10.28,2.89-14.19,8.65-13.09,19.4c2.69,26.37,4.67,52.82,6.89,79.24
	c0.37,4.39,0.51,8.8,0.75,13.21c-3.79-1.48-5.27-3.24-6.41-5.2c-14.52-24.99-29.09-49.95-43.39-75.07
	c-4.39-7.71-9.97-11.11-18.81-8.24c-16.04,5.21-32.14,10.22-48.2,15.34c-8.1,2.58-11.47,7.94-10.28,16.54
	c1.72,12.33,3.02,24.72,4.47,37.09c7.88,67.42,15.71,134.85,23.65,202.27c1.59,13.54,5.48,16.11,18.23,12.27
	c11.53-3.48,22.86-7.65,34.47-10.82c11.25-3.08,15.67-8.75,13.27-21.08c-6.05-31.14-10.98-62.49-16.31-93.77
	c-3.37-19.79-6.66-39.59-9.98-59.38c4.8,2.84,6.92,6.47,8.8,10.22c21.44,42.68,43.05,85.28,64.12,128.15
	c5.26,10.7,11.86,14.19,23.08,9.63c7.04-2.86,14.44-4.96,21.82-6.85c11.59-2.96,14.73-9.48,12.86-21.42
	C723.01,213.71,715.85,162.45,708.37,111.24z"/>
<path class="st0" d="M194.57,341.45c0.95-0.26,1.9-0.52,2.86-0.77c1.68,2.59,3.48,5.11,5.03,7.77
	c13.94,23.93,28.08,47.76,41.62,71.91c5.25,9.37,11.72,12.04,21.84,8.52c14.4-5.01,29.01-9.47,43.63-13.8
	c10.32-3.05,14.03-9.26,12.18-19.91c-1.92-11.07-2.83-22.31-4.13-33.48c-7.92-67.82-15.78-135.65-23.76-203.46
	c-1.59-13.49-5.41-15.92-18.31-12.01c-11.91,3.61-23.69,7.65-35.65,11.09c-10.2,2.94-14.17,8.44-12.11,19.56
	c6.64,35.93,12.52,72.01,18.65,108.03c2.62,15.4,5.14,30.83,7.7,46.24c-4.81-2.9-6.91-6.56-8.8-10.32
	c-21.42-42.69-43-85.3-64.06-128.17c-5.26-10.72-11.94-14.09-23.13-9.55c-7.42,3.01-15.19,5.24-22.94,7.32
	c-10.6,2.83-13.57,9.06-11.83,19.82c5.51,34.09,10.28,68.31,15.27,102.48c2.56,17.54,5,35.09,7.5,52.64
	c-4.55-2.86-6.72-6.49-8.51-10.28c-20.4-43.18-40.94-86.3-60.95-129.66c-4.78-10.36-10.96-13.81-21.85-9.82
	c-10.92,4-22.16,7.12-33.25,10.67c-15.63,5-17.01,8.14-9.48,22.19c9.28,17.34,18.69,34.61,28.03,51.91
	c28.21,52.28,56.54,104.49,84.49,156.91c5.28,9.9,11.66,13.29,22.43,9.05c8.94-3.52,18.32-5.95,27.52-8.82
	c33.05-10.31,28.99-6.97,26.54-40.9C199.28,391.52,196.77,366.5,194.57,341.45z"/>
<path class="st0" d="M328.95,213.31c3.82,31.83,7.15,73.57,14.19,114.67c8.02,46.85,38.3,65.5,84.97,56.04
	c61.31-12.43,98.85-54.3,95.8-111.54c-2.22-41.63-7.38-83.27-14.12-124.44c-7.41-45.26-37.97-64.46-83.12-55.82
	C364.26,104.18,328.15,145.27,328.95,213.31z"/>
<path class="st1" d="M394.35,212.65c-2.06-32.99,5.7-45.26,26.56-50.17c15.08-3.55,23.85,0.7,26.56,16.07
	c4.31,24.44,6.89,49.2,9.89,73.86c1.16,9.53,2.21,19.19,2.01,28.76c-0.45,20.8-14.9,35-35.56,33.81
	c-5.56-0.32-12.23-5.4-15.74-10.22c-3.5-4.82-4.41-11.98-5.19-18.27C399.5,259.44,396.59,232.33,394.35,212.65z"/>
</svg>
